General

Format                           : AVI
Format/Info                      : Audio Video Interleave
Format profile                   : OpenDML
File size                        : 689 MiB
Duration                         : 2h 8mn
Overall bit rate                 : 748 Kbps
Writing application              : AVI-Mux GUI 1.17.8.3, Feb 16 201019:42:50

Video

ID                               : 0
Format                           : MPEG-4 Visual
Format profile                   : Advanced Simple@L5
Format settings, BVOP            : Yes
Format settings, QPel            : Yes
Format settings, GMC             : No warppoints
Format settings, Matrix          : Default (H.263)
Codec ID                         : XVID
Codec ID/Hint                    : XviD
Duration                         : 2h 8mn
Bit rate                         : 647 Kbps
Width                            : 656 pixels
Height                           : 288 pixels
Display aspect ratio             : 2.25:1
Frame rate                       : 29.970 fps
Color space                      : YUV
Chroma subsampling               : 4:2:0
Bit depth                        : 8 bits
Scan type                        : Progressive
Compression mode                 : Lossy
Bits/(Pixel*Frame)               : 0.114
Stream size                      : 597 MiB (87%)
Writing library                  : XviD 1.2.1 (UTC 2008-12-04)

Audio
ID                               : 1
Format                           : MPEG Audio
Format version                   : Version 1
Format profile                   : Layer 3
Mode                             : Joint stereo
Mode extension                   : MS Stereo
Codec ID                         : 55
Codec ID/Hint                    : MP3
Duration                         : 2h 8mn
Bit rate mode                    : Constant
Bit rate                         : 96.0 Kbps
Channel(s)                       : 2 channels
Sampling rate                    : 32.0 KHz
Compression mode                 : Lossy
Stream size                      : 88.5 MiB (13%)
Alignment                        : Aligned on interleaves
Interleave, duration             : 954 ms (28.59 video frames)
Interleave, preload duration     : 216 ms
Writing library                  : LAME3.98r

Screens :

 
http://img687.imageshack.us/img687/2653/vlcsnap2011010721h49m27.png 
http://img87.imageshack.us/img87/3533/vlcsnap2011010721h49m46.png 
http://img208.imageshack.us/img208/6181/vlcsnap2011010721h49m55.png 
http://img600.imageshack.us/img600/9448/vlcsnap2011010721h51m03.png 
http://img404.imageshack.us/img404/1727/vlcsnap2011010721h51m41.png 
http://img146.imageshack.us/img146/7654/vlcsnap2011010721h51m45.png 
http://img232.imageshack.us/img232/8025/vlcsnap2011010721h53m58.png 
http://img221.imageshack.us/img221/3175/vlcsnap2011010721h55m48.png
